<?xml version="1.0" encoding="UTF-8" standalone="no"?>
<!DOCTYPE svg PUBLIC "-//W3C//DTD SVG 1.1//EN"
 "http://www.w3.org/Graphics/SVG/1.1/DTD/svg11.dtd">
<!-- Generated by graphviz version 12.2.1 (20241206.2353)
 -->
<!-- Title: G Pages: 1 -->
<svg width="240pt" height="529pt"
 viewBox="0.00 0.00 239.95 528.95" xmlns="http://www.w3.org/2000/svg" xmlns:xlink="http://www.w3.org/1999/xlink">
<g id="graph0" class="graph" transform="scale(1 1) rotate(0) translate(21.6 507.35)">
<title>G</title>
<polygon fill="#111111" stroke="none" points="-21.6,21.6 -21.6,-507.35 218.35,-507.35 218.35,21.6 -21.6,21.6"/>
<!-- app/api/health/route.ts -->
<g id="node1" class="node">
<title>app/api/health/route.ts</title>
<path fill="none" stroke="#cfffac" d="M165.21,-23.75C165.21,-23.75 31.54,-23.75 31.54,-23.75 27.58,-23.75 23.62,-19.79 23.62,-15.83 23.62,-15.83 23.62,-7.92 23.62,-7.92 23.62,-3.96 27.58,0 31.54,0 31.54,0 165.21,0 165.21,0 169.17,0 173.12,-3.96 173.12,-7.92 173.12,-7.92 173.12,-15.83 173.12,-15.83 173.12,-19.79 169.17,-23.75 165.21,-23.75"/>
<text text-anchor="middle" x="98.38" y="-6.45" font-family="Arial" font-size="14.00" fill="#cfffac">app/api/health/route.ts</text>
</g>
<!-- app/layout.tsx -->
<g id="node2" class="node">
<title>app/layout.tsx</title>
<path fill="none" stroke="#cfffac" d="M140.08,-65.75C140.08,-65.75 56.67,-65.75 56.67,-65.75 52.71,-65.75 48.75,-61.79 48.75,-57.83 48.75,-57.83 48.75,-49.92 48.75,-49.92 48.75,-45.96 52.71,-42 56.67,-42 56.67,-42 140.08,-42 140.08,-42 144.04,-42 148,-45.96 148,-49.92 148,-49.92 148,-57.83 148,-57.83 148,-61.79 144.04,-65.75 140.08,-65.75"/>
<text text-anchor="middle" x="98.38" y="-48.45" font-family="Arial" font-size="14.00" fill="#cfffac">app/layout.tsx</text>
</g>
<!-- app/page.tsx -->
<g id="node3" class="node">
<title>app/page.tsx</title>
<path fill="none" stroke="#cfffac" d="M137.08,-107.75C137.08,-107.75 59.67,-107.75 59.67,-107.75 55.71,-107.75 51.75,-103.79 51.75,-99.83 51.75,-99.83 51.75,-91.92 51.75,-91.92 51.75,-87.96 55.71,-84 59.67,-84 59.67,-84 137.08,-84 137.08,-84 141.04,-84 145,-87.96 145,-91.92 145,-91.92 145,-99.83 145,-99.83 145,-103.79 141.04,-107.75 137.08,-107.75"/>
<text text-anchor="middle" x="98.38" y="-90.45" font-family="Arial" font-size="14.00" fill="#cfffac">app/page.tsx</text>
</g>
<!-- components/Button/Button.tsx -->
<g id="node4" class="node">
<title>components/Button/Button.tsx</title>
<path fill="none" stroke="#cfffac" d="M188.83,-149.75C188.83,-149.75 7.92,-149.75 7.92,-149.75 3.96,-149.75 0,-145.79 0,-141.83 0,-141.83 0,-133.92 0,-133.92 0,-129.96 3.96,-126 7.92,-126 7.92,-126 188.83,-126 188.83,-126 192.79,-126 196.75,-129.96 196.75,-133.92 196.75,-133.92 196.75,-141.83 196.75,-141.83 196.75,-145.79 192.79,-149.75 188.83,-149.75"/>
<text text-anchor="middle" x="98.38" y="-132.45" font-family="Arial" font-size="14.00" fill="#cfffac">components/Button/Button.tsx</text>
</g>
<!-- components/Tooltip/Tooltip.tsx -->
<g id="node5" class="node">
<title>components/Tooltip/Tooltip.tsx</title>
<path fill="none" stroke="#cfffac" d="M188.83,-191.75C188.83,-191.75 7.92,-191.75 7.92,-191.75 3.96,-191.75 0,-187.79 0,-183.83 0,-183.83 0,-175.92 0,-175.92 0,-171.96 3.96,-168 7.92,-168 7.92,-168 188.83,-168 188.83,-168 192.79,-168 196.75,-171.96 196.75,-175.92 196.75,-175.92 196.75,-183.83 196.75,-183.83 196.75,-187.79 192.79,-191.75 188.83,-191.75"/>
<text text-anchor="middle" x="98.38" y="-174.45" font-family="Arial" font-size="14.00" fill="#cfffac">components/Tooltip/Tooltip.tsx</text>
</g>
<!-- env.mjs -->
<g id="node6" class="node">
<title>env.mjs</title>
<path fill="none" stroke="#cfffac" d="M121.71,-233.75C121.71,-233.75 75.04,-233.75 75.04,-233.75 71.08,-233.75 67.12,-229.79 67.12,-225.83 67.12,-225.83 67.12,-217.92 67.12,-217.92 67.12,-213.96 71.08,-210 75.04,-210 75.04,-210 121.71,-210 121.71,-210 125.67,-210 129.62,-213.96 129.62,-217.92 129.62,-217.92 129.62,-225.83 129.62,-225.83 129.62,-229.79 125.67,-233.75 121.71,-233.75"/>
<text text-anchor="middle" x="98.38" y="-216.45" font-family="Arial" font-size="14.00" fill="#cfffac">env.mjs</text>
</g>
<!-- jest.config.js -->
<g id="node7" class="node">
<title>jest.config.js</title>
<path fill="none" stroke="#cfffac" d="M135.58,-275.75C135.58,-275.75 61.17,-275.75 61.17,-275.75 57.21,-275.75 53.25,-271.79 53.25,-267.83 53.25,-267.83 53.25,-259.92 53.25,-259.92 53.25,-255.96 57.21,-252 61.17,-252 61.17,-252 135.58,-252 135.58,-252 139.54,-252 143.5,-255.96 143.5,-259.92 143.5,-259.92 143.5,-267.83 143.5,-267.83 143.5,-271.79 139.54,-275.75 135.58,-275.75"/>
<text text-anchor="middle" x="98.38" y="-258.45" font-family="Arial" font-size="14.00" fill="#cfffac">jest.config.js</text>
</g>
<!-- jest.setup.js -->
<g id="node8" class="node">
<title>jest.setup.js</title>
<path fill="none" stroke="#cfffac" d="M134.08,-317.75C134.08,-317.75 62.67,-317.75 62.67,-317.75 58.71,-317.75 54.75,-313.79 54.75,-309.83 54.75,-309.83 54.75,-301.92 54.75,-301.92 54.75,-297.96 58.71,-294 62.67,-294 62.67,-294 134.08,-294 134.08,-294 138.04,-294 142,-297.96 142,-301.92 142,-301.92 142,-309.83 142,-309.83 142,-313.79 138.04,-317.75 134.08,-317.75"/>
<text text-anchor="middle" x="98.38" y="-300.45" font-family="Arial" font-size="14.00" fill="#cfffac">jest.setup.js</text>
</g>
<!-- lp&#45;items.tsx -->
<g id="node9" class="node">
<title>lp&#45;items.tsx</title>
<path fill="none" stroke="#cfffac" d="M132.96,-359.75C132.96,-359.75 63.79,-359.75 63.79,-359.75 59.83,-359.75 55.88,-355.79 55.88,-351.83 55.88,-351.83 55.88,-343.92 55.88,-343.92 55.88,-339.96 59.83,-336 63.79,-336 63.79,-336 132.96,-336 132.96,-336 136.92,-336 140.88,-339.96 140.88,-343.92 140.88,-343.92 140.88,-351.83 140.88,-351.83 140.88,-355.79 136.92,-359.75 132.96,-359.75"/>
<text text-anchor="middle" x="98.38" y="-342.45" font-family="Arial" font-size="14.00" fill="#cfffac">lp&#45;items.tsx</text>
</g>
<!-- report&#45;bundle&#45;size.js -->
<g id="node10" class="node">
<title>report&#45;bundle&#45;size.js</title>
<path fill="none" stroke="#cfffac" d="M159.58,-401.75C159.58,-401.75 37.17,-401.75 37.17,-401.75 33.21,-401.75 29.25,-397.79 29.25,-393.83 29.25,-393.83 29.25,-385.92 29.25,-385.92 29.25,-381.96 33.21,-378 37.17,-378 37.17,-378 159.58,-378 159.58,-378 163.54,-378 167.5,-381.96 167.5,-385.92 167.5,-385.92 167.5,-393.83 167.5,-393.83 167.5,-397.79 163.54,-401.75 159.58,-401.75"/>
<text text-anchor="middle" x="98.38" y="-384.45" font-family="Arial" font-size="14.00" fill="#cfffac">report&#45;bundle&#45;size.js</text>
</g>
<!-- styles/tailwind.css -->
<g id="node11" class="node">
<title>styles/tailwind.css</title>
<path fill="none" stroke="#cfffac" d="M152.08,-443.75C152.08,-443.75 44.67,-443.75 44.67,-443.75 40.71,-443.75 36.75,-439.79 36.75,-435.83 36.75,-435.83 36.75,-427.92 36.75,-427.92 36.75,-423.96 40.71,-420 44.67,-420 44.67,-420 152.08,-420 152.08,-420 156.04,-420 160,-423.96 160,-427.92 160,-427.92 160,-435.83 160,-435.83 160,-439.79 156.04,-443.75 152.08,-443.75"/>
<text text-anchor="middle" x="98.38" y="-426.45" font-family="Arial" font-size="14.00" fill="#cfffac">styles/tailwind.css</text>
</g>
<!-- tailwind.config.ts -->
<g id="node12" class="node">
<title>tailwind.config.ts</title>
<path fill="none" stroke="#cfffac" d="M147.96,-485.75C147.96,-485.75 48.79,-485.75 48.79,-485.75 44.83,-485.75 40.88,-481.79 40.88,-477.83 40.88,-477.83 40.88,-469.92 40.88,-469.92 40.88,-465.96 44.83,-462 48.79,-462 48.79,-462 147.96,-462 147.96,-462 151.92,-462 155.88,-465.96 155.88,-469.92 155.88,-469.92 155.88,-477.83 155.88,-477.83 155.88,-481.79 151.92,-485.75 147.96,-485.75"/>
<text text-anchor="middle" x="98.38" y="-468.45" font-family="Arial" font-size="14.00" fill="#cfffac">tailwind.config.ts</text>
</g>
</g>
</svg>
